<?xml version="1.0" encoding="utf-8"?>
<!-- Generator: Adobe Illustrator 25.2.0, SVG Export Plug-In . SVG Version: 6.00 Build 0)  -->
<svg version="1.1" id="Capa_1" xmlns="http://www.w3.org/2000/svg" xmlns:xlink="http://www.w3.org/1999/xlink" x="0px" y="0px"
	 viewBox="0 0 423.3 423.3" style="enable-background:new 0 0 423.3 423.3;" xml:space="preserve">
<style type="text/css">
	.st0{fill:currentColor;enable-background:new;}
</style>
<g>
	<g>
		<path class="st0" d="M417.8,76.5c-4.6-13.9-14.9-29-29.7-43.8C373.3,17.8,350.6,0,327.1,0c-10.5,0-20.2,3.7-28.1,10.7
			c-0.4,0.3-0.8,0.7-1.2,1l-45.5,45.5H14.4c-6.6,0-12,5.4-12,12v342c0,6.6,5.4,12,12,12h342c6.6,0,12-5.4,12-12V166.1
			c0-0.7-0.1-1.5-0.2-2.2l39.9-39.9c0.1-0.1,0.2-0.2,0.2-0.2c0,0,0,0,0,0l0.8-0.8c0.4-0.4,0.7-0.8,1-1.2
			C421,109.7,423.7,94,417.8,76.5z M163.3,324.9l-84.7,24.4l19.2-89.9L163.3,324.9z M185.3,312.9l-77.4-77.4L288.4,55.1l77.4,77.4
			L185.3,312.9z M344.4,399.3h-318v-318h201.8L82.2,227.4c-1.6,1.6-2.8,3.7-3.2,6L51,363.9c-0.9,4.1,0.5,8.4,3.6,11.3
			c2.3,2.1,5.2,3.2,8.2,3.2c0.6,0,231.5,0,231.5,0c6.6,0,12-5.4,12-12s-5.4-12-12-12H147.6l39.4-11.4c1.9-0.6,3.7-1.6,5.2-3
			l152.3-152.3V399.3z M391.8,106.4c-0.1,0.1-0.3,0.3-0.4,0.4l-0.1,0.1c0,0-0.1,0.1-0.1,0.1l-8.5,8.5l-77.4-77.4l8.7-8.7
			c0.1-0.1,0.3-0.3,0.4-0.4c3.7-3.4,7.7-5,12.6-5c11.7,0,27.8,9.3,44.1,25.6C380.1,58.6,408,89,391.8,106.4z"/>
	</g>
</g>
</svg>
