<?xml version="1.0" encoding="utf-8"?>
<!-- Generator: Adobe Illustrator 25.2.0, SVG Export Plug-In . SVG Version: 6.00 Build 0)  -->
<svg version="1.1" id="Capa_1" xmlns="http://www.w3.org/2000/svg" xmlns:xlink="http://www.w3.org/1999/xlink" x="0px" y="0px"
	 viewBox="0 0 16 14.2" style="enable-background:new 0 0 16 14.2;" xml:space="preserve">
<style type="text/css">
	.st0{fill:#DDE0F2;}
</style>
<path class="st0" d="M15.9,6.6l-1.6-1.4V1.3c0-0.1,0-0.2-0.1-0.3c-0.1-0.1-0.2-0.1-0.3-0.1H12c-0.1,0-0.2,0-0.3,0.1
	c-0.1,0.1-0.1,0.2-0.1,0.3v1.4L8.7,0.3C8.6,0.1,8.2,0,8,0S7.4,0.1,7.3,0.3L0.1,6.6c0,0-0.1,0.1-0.1,0.1c0,0.1,0,0.1,0,0.2S0,7,0,7
	c0,0.1,0,0.1,0.1,0.1l0.6,0.7C0.8,7.9,0.9,8,1,8c0.1,0,0.2,0,0.3-0.1l0.4-0.4v5.8c0,0.2,0.1,0.5,0.3,0.6c0.2,0.2,0.4,0.3,0.6,0.3
	h10.7c0.2,0,0.5-0.1,0.6-0.3c0.2-0.2,0.3-0.4,0.3-0.6V7.5l0.4,0.4C14.7,8,14.9,8,15,8c0.1,0,0.2-0.1,0.3-0.1l0.6-0.7
	C16,7.1,16,7,16,6.9C16,6.8,15.9,6.7,15.9,6.6z M9.8,8.3c0,0.2-0.1,0.3-0.2,0.4C9.5,8.8,9.3,8.9,9.2,8.9H6.8c-0.2,0-0.3-0.1-0.4-0.2
	C6.3,8.6,6.2,8.5,6.2,8.3V5.9c0-0.2,0.1-0.3,0.2-0.4s0.3-0.2,0.4-0.2h2.4c0.2,0,0.3,0.1,0.4,0.2c0.1,0.1,0.2,0.3,0.2,0.4V8.3z"/>
</svg>
