<?xml version="1.0" encoding="utf-8"?>
<!-- Generator: Adobe Illustrator 25.2.0, SVG Export Plug-In . SVG Version: 6.00 Build 0)  -->
<svg version="1.1" id="Capa_1" xmlns="http://www.w3.org/2000/svg" xmlns:xlink="http://www.w3.org/1999/xlink" x="0px" y="0px"
	 viewBox="0 0 14.8 15.5" style="enable-background:new 0 0 14.8 15.5;" xml:space="preserve">
<style type="text/css">
	.st0{opacity:0.4;fill:#9FA2B4;enable-background:new    ;}
</style>
<path class="st0" d="M14.6,9.6l-1.3-0.8c0.1-0.7,0.1-1.5,0-2.2l1.3-0.8c0.2-0.1,0.2-0.3,0.2-0.4c-0.3-1.1-0.9-2.1-1.7-3
	c-0.1-0.1-0.3-0.2-0.5-0.1l-1.3,0.8c-0.6-0.5-1.2-0.9-1.9-1.1V0.6c0-0.2-0.1-0.3-0.3-0.4C8-0.1,6.8-0.1,5.7,0.2
	c-0.2,0-0.3,0.2-0.3,0.4v1.5C4.7,2.3,4.1,2.7,3.5,3.2L2.2,2.4C2,2.3,1.8,2.4,1.7,2.5C1,3.3,0.4,4.3,0,5.4C0,5.6,0,5.8,0.2,5.9
	l1.3,0.8c-0.1,0.7-0.1,1.5,0,2.2L0.2,9.6C0,9.7,0,9.9,0,10.1c0.3,1.1,0.9,2.1,1.7,3c0.1,0.1,0.3,0.2,0.5,0.1l1.3-0.8
	c0.6,0.5,1.2,0.9,1.9,1.1v1.5c0,0.2,0.1,0.3,0.3,0.4c1.1,0.3,2.3,0.2,3.4,0c0.2,0,0.3-0.2,0.3-0.4v-1.5c0.7-0.2,1.3-0.6,1.9-1.1
	l1.3,0.8c0.2,0.1,0.3,0.1,0.5-0.1c0.8-0.8,1.4-1.8,1.7-3C14.9,9.9,14.8,9.7,14.6,9.6z M7.4,10.2c-1.4,0-2.5-1.1-2.5-2.5
	c0-1.4,1.1-2.5,2.5-2.5c1.4,0,2.5,1.1,2.5,2.5C9.9,9.1,8.8,10.2,7.4,10.2z"/>
</svg>
