<?xml version="1.0" encoding="utf-8"?>
<!-- Generator: Adobe Illustrator 25.2.0, SVG Export Plug-In . SVG Version: 6.00 Build 0)  -->
<svg version="1.1" id="Capa_1" xmlns="http://www.w3.org/2000/svg" xmlns:xlink="http://www.w3.org/1999/xlink" x="0px" y="0px"
	 viewBox="0 0 12 16" style="enable-background:new 0 0 12 16;" xml:space="preserve">
<style type="text/css">
	.st0{fill:#61636F;}
</style>
<path class="st0" d="M10.5,2H8c0-1.1-0.9-2-2-2S4,0.9,4,2H1.5C0.7,2,0,2.7,0,3.5v11C0,15.3,0.7,16,1.5,16h9c0.8,0,1.5-0.7,1.5-1.5
	v-11C12,2.7,11.3,2,10.5,2z M6,1.2c0.4,0,0.8,0.3,0.8,0.8c0,0.4-0.3,0.8-0.8,0.8S5.2,2.4,5.2,2C5.2,1.6,5.6,1.2,6,1.2z M2,6.5
	l0.4-0.4c0.1-0.1,0.2-0.1,0.2,0l0.6,0.7l1.5-1.5c0.1-0.1,0.2-0.1,0.2,0l0.4,0.4c0.1,0.1,0.1,0.2,0,0.2l-2,2C3.4,8,3.3,8,3.2,7.9
	L2,6.8C2,6.7,2,6.6,2,6.5z M3,12.2c-0.4,0-0.8-0.3-0.8-0.8s0.3-0.8,0.8-0.8s0.8,0.3,0.8,0.8S3.4,12.2,3,12.2z M10,11.8
	c0,0.1-0.1,0.2-0.2,0.2H5.2C5.1,12,5,11.9,5,11.8v-0.5C5,11.1,5.1,11,5.2,11h4.5c0.1,0,0.2,0.1,0.2,0.2V11.8z M10,7.8
	C10,7.9,9.9,8,9.7,8H4.8l1-1h3.9C9.9,7,10,7.1,10,7.2V7.8z"/>
</svg>
